<svg xmlns="http://www.w3.org/2000/svg" xmlns:svg="http://www.w3.org/2000/svg" id="svg2" width="480" height="480" version="1.1" viewBox="0 0 480 480"><defs id="defs4"><marker id="marker4853" orient="auto" refX="0" refY="0" style="overflow:visible"><path id="path4855" d="M 8.7185878,4.0337352 -2.2072895,0.01601326 8.7185884,-4.0017078 c -1.7454984,2.3720609 -1.7354408,5.6174519 -6e-7,8.035443 z" transform="matrix(-0.3,0,0,-0.3,0.69,0)" style="fill:#2ba9e0;fill-opacity:1;fill-rule:evenodd;stroke:#2ba9e0;stroke-width:.625;stroke-linejoin:round;stroke-opacity:1"/></marker><marker style="overflow:visible" id="marker4749" orient="auto" refX="0" refY="0"><path style="fill:#2ba9e0;fill-opacity:1;fill-rule:evenodd;stroke:#2ba9e0;stroke-width:.625;stroke-linejoin:round;stroke-opacity:1" id="path4751" d="M 8.7185878,4.0337352 -2.2072895,0.01601326 8.7185884,-4.0017078 c -1.7454984,2.3720609 -1.7354408,5.6174519 -6e-7,8.035443 z" transform="matrix(-0.3,0,0,-0.3,0.69,0)"/></marker><marker id="marker4668" orient="auto" refX="0" refY="0" style="overflow:visible"><path id="path4445" d="M 8.7185878,4.0337352 -2.2072895,0.01601326 8.7185884,-4.0017078 c -1.7454984,2.3720609 -1.7354408,5.6174519 -6e-7,8.035443 z" transform="matrix(-0.3,0,0,-0.3,0.69,0)" style="fill:#2ba9e0;fill-opacity:1;fill-rule:evenodd;stroke:#2ba9e0;stroke-width:.625;stroke-linejoin:round;stroke-opacity:1"/></marker><marker id="Arrow2Sstart" orient="auto" refX="0" refY="0" style="overflow:visible"><path id="path4378" d="M 8.7185878,4.0337352 -2.2072895,0.01601326 8.7185884,-4.0017078 c -1.7454984,2.3720609 -1.7354408,5.6174519 -6e-7,8.035443 z" transform="matrix(0.3,0,0,0.3,-0.69,0)" style="fill:#3b2315;fill-opacity:1;fill-rule:evenodd;stroke:#3b2315;stroke-width:.625;stroke-linejoin:round;stroke-opacity:1"/></marker><marker id="Arrow2Send" orient="auto" refX="0" refY="0" style="overflow:visible"><path id="path4381" d="M 8.7185878,4.0337352 -2.2072895,0.01601326 8.7185884,-4.0017078 c -1.7454984,2.3720609 -1.7354408,5.6174519 -6e-7,8.035443 z" transform="matrix(-0.3,0,0,-0.3,0.69,0)" style="fill:#3b2315;fill-opacity:1;fill-rule:evenodd;stroke:#3b2315;stroke-width:.625;stroke-linejoin:round;stroke-opacity:1"/></marker><marker id="marker4722" orient="auto" refX="0" refY="0" style="overflow:visible"><path id="path4724" d="M 8.7185878,4.0337352 -2.2072895,0.01601326 8.7185884,-4.0017078 c -1.7454984,2.3720609 -1.7354408,5.6174519 -6e-7,8.035443 z" transform="scale(-0.6,-0.6)" style="fill:#000;fill-opacity:1;fill-rule:evenodd;stroke:#000;stroke-width:.625;stroke-linejoin:round;stroke-opacity:1"/></marker><marker id="Arrow2Mend" orient="auto" refX="0" refY="0" style="overflow:visible"><path id="path4375" d="M 8.7185878,4.0337352 -2.2072895,0.01601326 8.7185884,-4.0017078 c -1.7454984,2.3720609 -1.7354408,5.6174519 -6e-7,8.035443 z" transform="scale(-0.6,-0.6)" style="fill:#000;fill-opacity:1;fill-rule:evenodd;stroke:#000;stroke-width:.625;stroke-linejoin:round;stroke-opacity:1"/></marker><marker id="Arrow1Mend" orient="auto" refX="0" refY="0" style="overflow:visible"><path id="path4357" d="M 0,0 5,-5 -12.5,0 5,5 0,0 Z" transform="matrix(-0.4,0,0,-0.4,-4,0)" style="fill:#000;fill-opacity:1;fill-rule:evenodd;stroke:#000;stroke-width:1pt;stroke-opacity:1"/></marker><marker id="marker4624" orient="auto" refX="0" refY="0" style="overflow:visible"><path id="path4626" d="M 0,0 5,-5 -12.5,0 5,5 0,0 Z" transform="matrix(0.8,0,0,0.8,10,0)" style="fill:#000;fill-opacity:1;fill-rule:evenodd;stroke:#000;stroke-width:1pt;stroke-opacity:1"/></marker><marker id="Arrow1Lstart" orient="auto" refX="0" refY="0" style="overflow:visible"><path id="path4348" d="M 0,0 5,-5 -12.5,0 5,5 0,0 Z" transform="matrix(0.8,0,0,0.8,10,0)" style="fill:#000;fill-opacity:1;fill-rule:evenodd;stroke:#000;stroke-width:1pt;stroke-opacity:1"/></marker><marker id="Arrow2Send-4" orient="auto" refX="0" refY="0" style="overflow:visible"><path id="path4381-4" d="M 8.7185878,4.0337352 -2.2072895,0.01601326 8.7185884,-4.0017078 c -1.7454984,2.3720609 -1.7354408,5.6174519 -6e-7,8.035443 z" transform="matrix(-0.3,0,0,-0.3,0.69,0)" style="fill:#3b2315;fill-opacity:1;fill-rule:evenodd;stroke:#3b2315;stroke-width:.625;stroke-linejoin:round;stroke-opacity:1"/></marker><marker id="Arrow2Send-48" orient="auto" refX="0" refY="0" style="overflow:visible"><path id="path4381-6" d="M 8.7185878,4.0337352 -2.2072895,0.01601326 8.7185884,-4.0017078 c -1.7454984,2.3720609 -1.7354408,5.6174519 -6e-7,8.035443 z" transform="matrix(-0.3,0,0,-0.3,0.69,0)" style="fill:#3b2315;fill-opacity:1;fill-rule:evenodd;stroke:#3b2315;stroke-width:.625;stroke-linejoin:round;stroke-opacity:1"/></marker><marker id="Arrow2Send-48-4" orient="auto" refX="0" refY="0" style="overflow:visible"><path id="path4381-6-7" d="M 8.7185878,4.0337352 -2.2072895,0.01601326 8.7185884,-4.0017078 c -1.7454984,2.3720609 -1.7354408,5.6174519 -6e-7,8.035443 z" transform="matrix(-0.3,0,0,-0.3,0.69,0)" style="fill:#3b2315;fill-opacity:1;fill-rule:evenodd;stroke:#3b2315;stroke-width:.625;stroke-linejoin:round;stroke-opacity:1"/></marker><marker id="marker4668-1" orient="auto" refX="0" refY="0" style="overflow:visible"><path id="path4445-7" d="M 8.7185878,4.0337352 -2.2072895,0.01601326 8.7185884,-4.0017078 c -1.7454984,2.3720609 -1.7354408,5.6174519 -6e-7,8.035443 z" transform="matrix(-0.3,0,0,-0.3,0.69,0)" style="fill:#2ba9e0;fill-opacity:1;fill-rule:evenodd;stroke:#2ba9e0;stroke-width:.625;stroke-linejoin:round;stroke-opacity:1"/></marker><marker id="marker4668-8" orient="auto" refX="0" refY="0" style="overflow:visible"><path id="path4445-8" d="M 8.7185878,4.0337352 -2.2072895,0.01601326 8.7185884,-4.0017078 c -1.7454984,2.3720609 -1.7354408,5.6174519 -6e-7,8.035443 z" transform="matrix(-0.3,0,0,-0.3,0.69,0)" style="fill:#2ba9e0;fill-opacity:1;fill-rule:evenodd;stroke:#2ba9e0;stroke-width:.625;stroke-linejoin:round;stroke-opacity:1"/></marker><marker id="marker4668-8-9" orient="auto" refX="0" refY="0" style="overflow:visible"><path id="path4445-8-0" d="M 8.7185878,4.0337352 -2.2072895,0.01601326 8.7185884,-4.0017078 c -1.7454984,2.3720609 -1.7354408,5.6174519 -6e-7,8.035443 z" transform="matrix(-0.3,0,0,-0.3,0.69,0)" style="fill:#2ba9e0;fill-opacity:1;fill-rule:evenodd;stroke:#2ba9e0;stroke-width:.625;stroke-linejoin:round;stroke-opacity:1"/></marker></defs><metadata id="metadata7"/><g id="layer1" transform="translate(0,-572.36211)"><g id="g6279" transform="translate(-4.4875,-35.000012)"><path id="path4828" d="m 155,657.36211 0,30" style="fill:none;fill-rule:evenodd;stroke:#2ba9e0;stroke-width:5;stroke-linecap:round;stroke-linejoin:round;stroke-miterlimit:4;stroke-dasharray:none;stroke-opacity:1;marker-end:url(#marker4749)"/><path id="path4828-7" d="m 155,752.36211 0,30" style="fill:none;fill-rule:evenodd;stroke:#2ba9e0;stroke-width:5;stroke-linecap:round;stroke-linejoin:round;stroke-miterlimit:4;stroke-dasharray:none;stroke-opacity:1;marker-end:url(#marker4668)"/><path id="path4828-0-7-9" d="m 75,867.36211 -68.0125,10e-6 0,-140.00001 48.0125,0" style="fill:none;fill-rule:evenodd;stroke:#2ba9e0;stroke-width:5;stroke-linecap:round;stroke-linejoin:round;stroke-miterlimit:4;stroke-dasharray:none;stroke-opacity:1;marker-end:url(#marker4853)"/><ellipse id="path4380" cx="155" cy="632.362" rx="60" ry="25" style="fill:#eb5c2b;fill-opacity:1;stroke:none;stroke-width:5;stroke-linecap:round;stroke-linejoin:round;stroke-miterlimit:4;stroke-dasharray:none;stroke-opacity:1"/><text id="text4187-1-1" x="154.994" y="641.92" xml:space="preserve" style="font-style:normal;font-weight:400;font-size:40px;line-height:125%;font-family:sans-serif;letter-spacing:0;word-spacing:0;fill:#fafafa;fill-opacity:1;stroke:none;stroke-width:1px;stroke-linecap:butt;stroke-linejoin:miter;stroke-opacity:1"><tspan style="font-style:normal;font-variant:normal;font-weight:700;font-stretch:normal;font-size:25.00000191px;font-family:Hack;-inkscape-font-specification:Hack;text-align:center;text-anchor:middle;fill:#fafafa;fill-opacity:1" id="tspan4189-4-51" x="154.994" y="641.92">start</tspan></text><g id="g5733"><path style="fill:#eb5c2b;fill-opacity:1;stroke:none;stroke-width:5;stroke-linecap:round;stroke-linejoin:round;stroke-miterlimit:4;stroke-dasharray:none;stroke-opacity:1" id="rect4388-8-9-6" d="m 70,702.36211 170,0 0,50 -170,0 z"/><text style="font-style:normal;font-weight:400;font-size:40px;line-height:125%;font-family:sans-serif;letter-spacing:0;word-spacing:0;fill:#fafafa;fill-opacity:1;stroke:none;stroke-width:1px;stroke-linecap:butt;stroke-linejoin:miter;stroke-opacity:1" id="text4187-1-1-8-8-8" x="155.421" y="736.682" xml:space="preserve"><tspan id="tspan4189-4-51-1-4-1" x="155.421" y="736.682" style="font-style:normal;font-variant:normal;font-weight:700;font-stretch:normal;font-size:25.00000191px;font-family:Hack;-inkscape-font-specification:Hack;text-align:center;text-anchor:middle;fill:#fafafa;fill-opacity:1">input A, B</tspan></text></g><path id="path4828-7-5" d="m 235.00001,867.36211 55,0" style="fill:none;fill-rule:evenodd;stroke:#2ba9e0;stroke-width:5;stroke-linecap:round;stroke-linejoin:round;stroke-miterlimit:4;stroke-dasharray:none;stroke-opacity:1;marker-end:url(#marker4668-1)"/><g id="g5031" transform="translate(-113.0125,33.37151)"><path style="fill:#f39223;fill-opacity:1;fill-rule:evenodd;stroke:none;stroke-width:1px;stroke-linecap:butt;stroke-linejoin:miter;stroke-opacity:1" id="path4384" d="m 268.0125,763.9906 -85,70 85,70 85.00001,-70 z"/><text style="font-style:normal;font-weight:400;font-size:40px;line-height:125%;font-family:sans-serif;letter-spacing:0;word-spacing:0;fill:#fafafa;fill-opacity:1;stroke:none;stroke-width:1px;stroke-linecap:butt;stroke-linejoin:miter;stroke-opacity:1" id="text4187-1-1-8-8-8-0" x="268.177" y="811.841" xml:space="preserve"><tspan id="tspan4189-4-51-1-4-1-1" x="268.177" y="811.841" style="font-style:normal;font-variant:normal;font-weight:700;font-stretch:normal;font-size:25.00000191px;font-family:Hack;-inkscape-font-specification:Hack;text-align:center;text-anchor:middle;fill:#fafafa;fill-opacity:1">A &gt; 0</tspan><tspan style="font-style:normal;font-variant:normal;font-weight:700;font-stretch:normal;font-size:25.00000191px;font-family:Hack;-inkscape-font-specification:Hack;text-align:center;text-anchor:middle;fill:#fafafa;fill-opacity:1" id="tspan4404" x="268.177" y="843.091">&amp;</tspan><tspan style="font-style:normal;font-variant:normal;font-weight:700;font-stretch:normal;font-size:25.00000191px;font-family:Hack;-inkscape-font-specification:Hack;text-align:center;text-anchor:middle;fill:#fafafa;fill-opacity:1" id="tspan4406" x="268.177" y="874.341">B &gt; 0</tspan></text></g><path id="path4828-7-0" d="m 390.00001,892.36211 0,30" style="fill:none;fill-rule:evenodd;stroke:#2ba9e0;stroke-width:5;stroke-linecap:round;stroke-linejoin:round;stroke-miterlimit:4;stroke-dasharray:none;stroke-opacity:1;marker-end:url(#marker4668-8)"/><g id="g5622" transform="translate(25,0)"><path style="fill:#eb5c2b;fill-opacity:1;stroke:none;stroke-width:5;stroke-linecap:round;stroke-linejoin:round;stroke-miterlimit:4;stroke-dasharray:none;stroke-opacity:1" id="rect4388-8-9-6-0" d="m 280.00001,842.36211 170,0 0,50 -170,0 z"/><text style="font-style:normal;font-weight:400;font-size:40px;line-height:125%;font-family:sans-serif;letter-spacing:0;word-spacing:0;fill:#fafafa;fill-opacity:1;stroke:none;stroke-width:1px;stroke-linecap:butt;stroke-linejoin:miter;stroke-opacity:1" id="text4187-1-1-8-8-8-04" x="365.421" y="876.682" xml:space="preserve"><tspan id="tspan4189-4-51-1-4-1-5" x="365.421" y="876.682" style="font-style:normal;font-variant:normal;font-weight:700;font-stretch:normal;font-size:25.00000191px;font-family:Hack;-inkscape-font-specification:Hack;text-align:center;text-anchor:middle;fill:#fafafa;fill-opacity:1">C = A + B</tspan></text></g><text id="text4187-1-1-8-8-8-2-4-8-7-5" x="37.837" y="854.615" xml:space="preserve" style="font-style:normal;font-weight:400;font-size:40px;line-height:125%;font-family:sans-serif;letter-spacing:0;word-spacing:0;fill:#3e2723;fill-opacity:1;stroke:none;stroke-width:1px;stroke-linecap:butt;stroke-linejoin:miter;stroke-opacity:1"><tspan style="font-style:normal;font-variant:normal;font-weight:700;font-stretch:normal;font-size:17.5px;font-family:Hack;-inkscape-font-specification:Hack;text-align:center;text-anchor:middle;fill:#3e2723;fill-opacity:1" id="tspan4189-4-51-1-4-1-2-0-4-5-8" x="37.837" y="854.615">no</tspan></text><text id="text4187-1-1-8-8-8-2-4-8-7-5-1" x="262.666" y="855.21" xml:space="preserve" style="font-style:normal;font-weight:400;font-size:40px;line-height:125%;font-family:sans-serif;letter-spacing:0;word-spacing:0;fill:#3e2723;fill-opacity:1;stroke:none;stroke-width:1px;stroke-linecap:butt;stroke-linejoin:miter;stroke-opacity:1"><tspan style="font-style:normal;font-variant:normal;font-weight:700;font-stretch:normal;font-size:17.5px;font-family:Hack;-inkscape-font-specification:Hack;text-align:center;text-anchor:middle;fill:#3e2723;fill-opacity:1" id="tspan4189-4-51-1-4-1-2-0-4-5-8-0" x="262.666" y="855.21">yes</tspan></text><path id="path4828-7-0-7" d="m 390.00001,982.3621 0,30" style="fill:none;fill-rule:evenodd;stroke:#2ba9e0;stroke-width:5;stroke-linecap:round;stroke-linejoin:round;stroke-miterlimit:4;stroke-dasharray:none;stroke-opacity:1;marker-end:url(#marker4668-8-9)"/><g id="g5728" transform="translate(0,-20)"><path style="fill:#eb5c2b;fill-opacity:1;stroke:none;stroke-width:5;stroke-linecap:round;stroke-linejoin:round;stroke-miterlimit:4;stroke-dasharray:none;stroke-opacity:1" id="rect4388-8-9-6-8" d="m 305.00001,952.36211 170,0 0,49.99999 -170,0 z"/><text style="font-style:normal;font-weight:400;font-size:40px;line-height:125%;font-family:sans-serif;letter-spacing:0;word-spacing:0;fill:#fafafa;fill-opacity:1;stroke:none;stroke-width:1px;stroke-linecap:butt;stroke-linejoin:miter;stroke-opacity:1" id="text4187-1-1-8-8-8-1" x="390.421" y="986.682" xml:space="preserve"><tspan id="tspan4189-4-51-1-4-1-9" x="390.421" y="986.682" style="font-style:normal;font-variant:normal;font-weight:700;font-stretch:normal;font-size:25.00000191px;font-family:Hack;-inkscape-font-specification:Hack;text-align:center;text-anchor:middle;fill:#fafafa;fill-opacity:1">print C</tspan></text></g><g id="g5723" transform="translate(-224.50713,55.499978)"><ellipse style="fill:#eb5c2b;fill-opacity:1;stroke:none;stroke-width:5;stroke-linecap:round;stroke-linejoin:round;stroke-miterlimit:4;stroke-dasharray:none;stroke-opacity:1" id="path4380-9" cx="614.507" cy="991.862" rx="60" ry="25"/><text style="font-style:normal;font-weight:400;font-size:40px;line-height:125%;font-family:sans-serif;letter-spacing:0;word-spacing:0;fill:#fafafa;fill-opacity:1;stroke:none;stroke-width:1px;stroke-linecap:butt;stroke-linejoin:miter;stroke-opacity:1" id="text4187-1-1-8" x="614.501" y="1001.42" xml:space="preserve"><tspan id="tspan4189-4-51-7" x="614.501" y="1001.42" style="font-style:normal;font-variant:normal;font-weight:700;font-stretch:normal;font-size:25.00000191px;font-family:Hack;-inkscape-font-specification:Hack;text-align:center;text-anchor:middle;fill:#fafafa;fill-opacity:1">end</tspan></text></g></g></g></svg>