<svg xmlns="http://www.w3.org/2000/svg" xmlns:svg="http://www.w3.org/2000/svg" id="svg2" width="430" height="290" version="1.1" viewBox="0 0 430 290"><defs id="defs4"><marker id="Arrow2Sstart" orient="auto" refX="0" refY="0" style="overflow:visible"><path id="path4378" d="M 8.7185878,4.0337352 -2.2072895,0.01601326 8.7185884,-4.0017078 c -1.7454984,2.3720609 -1.7354408,5.6174519 -6e-7,8.035443 z" transform="matrix(0.3,0,0,0.3,-0.69,0)" style="fill:#3b2315;fill-opacity:1;fill-rule:evenodd;stroke:#3b2315;stroke-width:.625;stroke-linejoin:round;stroke-opacity:1"/></marker><marker id="Arrow2Send" orient="auto" refX="0" refY="0" style="overflow:visible"><path id="path4381" d="M 8.7185878,4.0337352 -2.2072895,0.01601326 8.7185884,-4.0017078 c -1.7454984,2.3720609 -1.7354408,5.6174519 -6e-7,8.035443 z" transform="matrix(-0.3,0,0,-0.3,0.69,0)" style="fill:#3b2315;fill-opacity:1;fill-rule:evenodd;stroke:#3b2315;stroke-width:.625;stroke-linejoin:round;stroke-opacity:1"/></marker><marker id="marker4722" orient="auto" refX="0" refY="0" style="overflow:visible"><path id="path4724" d="M 8.7185878,4.0337352 -2.2072895,0.01601326 8.7185884,-4.0017078 c -1.7454984,2.3720609 -1.7354408,5.6174519 -6e-7,8.035443 z" transform="scale(-0.6,-0.6)" style="fill:#000;fill-opacity:1;fill-rule:evenodd;stroke:#000;stroke-width:.625;stroke-linejoin:round;stroke-opacity:1"/></marker><marker id="Arrow2Mend" orient="auto" refX="0" refY="0" style="overflow:visible"><path id="path4375" d="M 8.7185878,4.0337352 -2.2072895,0.01601326 8.7185884,-4.0017078 c -1.7454984,2.3720609 -1.7354408,5.6174519 -6e-7,8.035443 z" transform="scale(-0.6,-0.6)" style="fill:#000;fill-opacity:1;fill-rule:evenodd;stroke:#000;stroke-width:.625;stroke-linejoin:round;stroke-opacity:1"/></marker><marker id="Arrow1Mend" orient="auto" refX="0" refY="0" style="overflow:visible"><path id="path4357" d="M 0,0 5,-5 -12.5,0 5,5 0,0 Z" transform="matrix(-0.4,0,0,-0.4,-4,0)" style="fill:#000;fill-opacity:1;fill-rule:evenodd;stroke:#000;stroke-width:1pt;stroke-opacity:1"/></marker><marker id="marker4624" orient="auto" refX="0" refY="0" style="overflow:visible"><path id="path4626" d="M 0,0 5,-5 -12.5,0 5,5 0,0 Z" transform="matrix(0.8,0,0,0.8,10,0)" style="fill:#000;fill-opacity:1;fill-rule:evenodd;stroke:#000;stroke-width:1pt;stroke-opacity:1"/></marker><marker id="Arrow1Lstart" orient="auto" refX="0" refY="0" style="overflow:visible"><path id="path4348" d="M 0,0 5,-5 -12.5,0 5,5 0,0 Z" transform="matrix(0.8,0,0,0.8,10,0)" style="fill:#000;fill-opacity:1;fill-rule:evenodd;stroke:#000;stroke-width:1pt;stroke-opacity:1"/></marker><marker id="Arrow2Send-4" orient="auto" refX="0" refY="0" style="overflow:visible"><path id="path4381-4" d="M 8.7185878,4.0337352 -2.2072895,0.01601326 8.7185884,-4.0017078 c -1.7454984,2.3720609 -1.7354408,5.6174519 -6e-7,8.035443 z" transform="matrix(-0.3,0,0,-0.3,0.69,0)" style="fill:#3b2315;fill-opacity:1;fill-rule:evenodd;stroke:#3b2315;stroke-width:.625;stroke-linejoin:round;stroke-opacity:1"/></marker><marker id="Arrow2Send-48" orient="auto" refX="0" refY="0" style="overflow:visible"><path id="path4381-6" d="M 8.7185878,4.0337352 -2.2072895,0.01601326 8.7185884,-4.0017078 c -1.7454984,2.3720609 -1.7354408,5.6174519 -6e-7,8.035443 z" transform="matrix(-0.3,0,0,-0.3,0.69,0)" style="fill:#3b2315;fill-opacity:1;fill-rule:evenodd;stroke:#3b2315;stroke-width:.625;stroke-linejoin:round;stroke-opacity:1"/></marker><marker id="Arrow2Send-48-4" orient="auto" refX="0" refY="0" style="overflow:visible"><path id="path4381-6-7" d="M 8.7185878,4.0337352 -2.2072895,0.01601326 8.7185884,-4.0017078 c -1.7454984,2.3720609 -1.7354408,5.6174519 -6e-7,8.035443 z" transform="matrix(-0.3,0,0,-0.3,0.69,0)" style="fill:#3b2315;fill-opacity:1;fill-rule:evenodd;stroke:#3b2315;stroke-width:.625;stroke-linejoin:round;stroke-opacity:1"/></marker></defs><metadata id="metadata7"/><g id="layer1" transform="translate(0,-762.36211)"><rect style="fill:none;fill-opacity:1;stroke:#000;stroke-width:5;stroke-linecap:round;stroke-linejoin:round;stroke-miterlimit:4;stroke-dasharray:none;stroke-opacity:1" id="rect3380" width="200" height="250" x="2.5" y="764.862"/><rect style="fill:#000;fill-opacity:1;stroke:none;stroke-width:5;stroke-linecap:round;stroke-linejoin:round;stroke-miterlimit:4;stroke-dasharray:none;stroke-opacity:1" id="rect3380-9" width="170" height="10" x="17.5" y="774.862"/><rect style="fill:#000;fill-opacity:1;stroke:none;stroke-width:5;stroke-linecap:round;stroke-linejoin:round;stroke-miterlimit:4;stroke-dasharray:none;stroke-opacity:1" id="rect3380-9-3-1" width="170" height="50" x="17.5" y="954.862"/><rect style="fill:#000;fill-opacity:1;stroke:none;stroke-width:5;stroke-linecap:round;stroke-linejoin:round;stroke-miterlimit:4;stroke-dasharray:none;stroke-opacity:1" id="rect3380-9-3-9" width="30" height="30" x="17.5" y="789.862"/><rect style="fill:#000;fill-opacity:1;stroke:none;stroke-width:5;stroke-linecap:round;stroke-linejoin:round;stroke-miterlimit:4;stroke-dasharray:none;stroke-opacity:1" id="rect3380-9-3-9-4" width="30" height="30" x="52.5" y="789.862"/><rect style="fill:#000;fill-opacity:1;stroke:none;stroke-width:5;stroke-linecap:round;stroke-linejoin:round;stroke-miterlimit:4;stroke-dasharray:none;stroke-opacity:1" id="rect3380-9-3-9-4-8" width="30" height="30" x="87.5" y="789.862"/><rect style="fill:#000;fill-opacity:1;stroke:none;stroke-width:5;stroke-linecap:round;stroke-linejoin:round;stroke-miterlimit:4;stroke-dasharray:none;stroke-opacity:1" id="rect3380-9-3-9-4-8-3" width="30" height="30" x="122.5" y="789.862"/><rect style="fill:#000;fill-opacity:1;stroke:none;stroke-width:5;stroke-linecap:round;stroke-linejoin:round;stroke-miterlimit:4;stroke-dasharray:none;stroke-opacity:1" id="rect3380-9-3-9-4-8-3-8" width="30" height="30" x="157.5" y="789.862"/><rect style="fill:#9e9e9e;fill-opacity:1;stroke:none;stroke-width:5;stroke-linecap:round;stroke-linejoin:round;stroke-miterlimit:4;stroke-dasharray:none;stroke-opacity:1" id="rect3380-9-2-6" width="170" height="10" x="239.451" y="776.814"/><rect style="fill:none;fill-opacity:1;stroke:#03a9f4;stroke-width:1;stroke-linecap:round;stroke-linejoin:round;stroke-miterlimit:4;stroke-dasharray:none;stroke-opacity:1" id="rect4674-1" width="180" height="72.5" x="232.5" y="943.975"/><rect style="fill:none;fill-opacity:1;stroke:#000;stroke-width:5;stroke-linecap:round;stroke-linejoin:round;stroke-miterlimit:4;stroke-dasharray:none;stroke-opacity:1" id="rect3380-8" width="200" height="250" x="222.5" y="764.862"/><rect style="fill:#f57f17;fill-opacity:1;stroke:none;stroke-width:5;stroke-linecap:round;stroke-linejoin:round;stroke-miterlimit:4;stroke-dasharray:none;stroke-opacity:1" id="rect3380-9-2" width="170" height="10" x="237.5" y="774.862"/><rect style="fill:#009688;fill-opacity:1;stroke:none;stroke-width:5;stroke-linecap:round;stroke-linejoin:round;stroke-miterlimit:4;stroke-dasharray:none;stroke-opacity:1" id="rect3380-9-3-9-9" width="30" height="30" x="237.5" y="789.862" rx="10" ry="10"/><rect style="fill:#009688;fill-opacity:1;stroke:none;stroke-width:5;stroke-linecap:round;stroke-linejoin:round;stroke-miterlimit:4;stroke-dasharray:none;stroke-opacity:1" id="rect3380-9-3-9-4-5" width="30" height="30" x="272.5" y="789.862" rx="10" ry="10"/><rect style="fill:#009688;fill-opacity:1;stroke:none;stroke-width:5;stroke-linecap:round;stroke-linejoin:round;stroke-miterlimit:4;stroke-dasharray:none;stroke-opacity:1" id="rect3380-9-3-9-4-8-4" width="30" height="30" x="307.5" y="789.862" rx="10" ry="10"/><rect style="fill:#009688;fill-opacity:1;stroke:none;stroke-width:5;stroke-linecap:round;stroke-linejoin:round;stroke-miterlimit:4;stroke-dasharray:none;stroke-opacity:1" id="rect3380-9-3-9-4-8-3-9" width="30" height="30" x="342.5" y="789.862" rx="10" ry="10"/><rect style="fill:#009688;fill-opacity:1;stroke:none;stroke-width:5;stroke-linecap:round;stroke-linejoin:round;stroke-miterlimit:4;stroke-dasharray:none;stroke-opacity:1" id="rect3380-9-3-9-4-8-3-8-0" width="30" height="30" x="377.5" y="789.862" rx="10" ry="10"/><text style="font-style:normal;font-weight:400;font-size:40px;line-height:125%;font-family:sans-serif;letter-spacing:0;word-spacing:0;fill:#03a9f4;fill-opacity:1;stroke:none;stroke-width:1px;stroke-linecap:butt;stroke-linejoin:miter;stroke-opacity:1" id="text4434" x="54.871" y="1040.991" xml:space="preserve"><tspan id="tspan4436" x="54.871" y="1040.991" style="font-style:normal;font-variant:normal;font-weight:700;font-stretch:normal;font-size:17.5px;font-family:Hack;-inkscape-font-specification:Hack;fill:#03a9f4">HTML saja</tspan></text><text style="font-style:normal;font-weight:400;font-size:40px;line-height:125%;font-family:sans-serif;letter-spacing:0;word-spacing:0;fill:#03a9f4;fill-opacity:1;stroke:none;stroke-width:1px;stroke-linecap:butt;stroke-linejoin:miter;stroke-opacity:1" id="text4434-5" x="243.481" y="1040.658" xml:space="preserve"><tspan id="tspan4436-1" x="243.481" y="1040.658" style="font-style:normal;font-variant:normal;font-weight:700;font-stretch:normal;font-size:17.5px;font-family:Hack;-inkscape-font-specification:Hack;fill:#03a9f4">HTML dengan CSS</tspan></text><text style="font-style:normal;font-weight:400;font-size:45.92558289px;line-height:125%;font-family:sans-serif;letter-spacing:0;word-spacing:0;fill:#000;fill-opacity:1;stroke:none;stroke-width:1px;stroke-linecap:butt;stroke-linejoin:miter;stroke-opacity:1" id="text4434-55" x="18.437" y="840.438" xml:space="preserve"><tspan id="tspan4436-5" x="18.437" y="840.438" style="font-style:normal;font-variant:normal;font-weight:400;font-stretch:normal;font-size:15px;font-family:serif;-inkscape-font-specification:serif">Sebuah Tulisan</tspan></text><text style="font-style:normal;font-weight:400;font-size:45.92558289px;line-height:125%;font-family:sans-serif;letter-spacing:0;word-spacing:0;fill:#000;fill-opacity:1;stroke:none;stroke-width:1px;stroke-linecap:butt;stroke-linejoin:miter;stroke-opacity:1" id="text4434-55-1" x="253.443" y="845.438" xml:space="preserve"><tspan id="tspan4436-5-5" x="253.443" y="845.438" style="font-style:normal;font-variant:normal;font-weight:700;font-stretch:normal;font-size:20px;font-family:Cantarell;-inkscape-font-specification:Cantarell;fill:#f44336">Sebuah Tulisan</tspan></text><rect style="fill:#000;fill-opacity:1;stroke:none;stroke-width:5;stroke-linecap:round;stroke-linejoin:round;stroke-miterlimit:4;stroke-dasharray:none;stroke-opacity:1" id="rect3380-9-3-1-1" width="170" height="50" x="17.5" y="899.862"/><rect style="fill:#000;fill-opacity:1;stroke:none;stroke-width:5;stroke-linecap:round;stroke-linejoin:round;stroke-miterlimit:4;stroke-dasharray:none;stroke-opacity:1" id="rect3380-9-3-1-1-3" width="170" height="50" x="17.5" y="844.862"/><rect style="fill:none;fill-opacity:1;stroke:#03a9f4;stroke-width:1;stroke-linecap:round;stroke-linejoin:round;stroke-miterlimit:4;stroke-dasharray:none;stroke-opacity:1" id="rect4674" width="180" height="80" x="232.5" y="858.975"/><path style="fill:#ffc107;fill-opacity:1;stroke:#03a9f4;stroke-width:.66450375;stroke-linecap:round;stroke-linejoin:round;stroke-miterlimit:4;stroke-dasharray:none;stroke-opacity:1" id="path4691" d="m 237.33219,877.93734 8.45806,-4.57112 1.02942,-9.55898 6.96108,6.63154 9.40924,-1.97485 -4.15587,8.66963 4.7858,8.33847 -9.52955,-1.27341 -6.45145,7.1283 -1.73371,-9.45665 z"/><flowRoot id="flowRoot4693" transform="translate(-1.5258789e-5,767.2376)" xml:space="preserve" style="font-style:normal;font-weight:400;font-size:12.5px;line-height:125%;font-family:sans-serif;letter-spacing:0;word-spacing:0;fill:#000;fill-opacity:1;stroke:none;stroke-width:1px;stroke-linecap:butt;stroke-linejoin:miter;stroke-opacity:1"><flowRegion id="flowRegion4695"><rect id="rect4697" width="134.667" height="70.156" x="272.963" y="99.288" style="font-size:12.5px"/></flowRegion><flowPara id="flowPara4699" style="fill:#01579b">abcdefghijklmnopqrstuvwxyzabcdefghijklmnopqrstuvwxyzabcdefghijklmnopqrstuvwxyz</flowPara></flowRoot><path style="fill:#ffc107;fill-opacity:1;stroke:#03a9f4;stroke-width:.66450375;stroke-linecap:round;stroke-linejoin:round;stroke-miterlimit:4;stroke-dasharray:none;stroke-opacity:1" id="path4691-4" d="m 237.33219,962.93734 8.45806,-4.57112 1.02942,-9.55898 6.96108,6.63154 9.40924,-1.97485 -4.15587,8.66963 4.7858,8.33847 -9.52955,-1.27341 -6.45145,7.1283 -1.73371,-9.45665 z"/><flowRoot id="flowRoot4693-5" transform="translate(-1.2901367e-5,852.23756)" xml:space="preserve" style="font-style:normal;font-weight:400;font-size:12.5px;line-height:125%;font-family:sans-serif;letter-spacing:0;word-spacing:0;fill:#000;fill-opacity:1;stroke:none;stroke-width:1px;stroke-linecap:butt;stroke-linejoin:miter;stroke-opacity:1"><flowRegion id="flowRegion4695-0"><rect id="rect4697-5" width="134.667" height="70.156" x="272.963" y="99.288" style="font-size:12.5px"/></flowRegion><flowPara id="flowPara4699-5" style="fill:#01579b">abcdefghijklmnopqrstuvwxyzabcdefghijklmnopqrstuvwxyzabc</flowPara></flowRoot></g></svg>