<svg xmlns="http://www.w3.org/2000/svg" xmlns:svg="http://www.w3.org/2000/svg" id="svg2" width="610" height="290" version="1.1" viewBox="0 0 610 290"><defs id="defs4"><marker id="TriangleOutM" orient="auto" refX="0" refY="0" style="overflow:visible"><path id="path4568" d="m 5.77,0 -8.65,5 0,-10 8.65,5 z" transform="scale(0.4,0.4)" style="fill:#ff9800;fill-opacity:1;fill-rule:evenodd;stroke:#ff9800;stroke-width:1pt;stroke-opacity:1"/></marker><marker id="Arrow2Sstart" orient="auto" refX="0" refY="0" style="overflow:visible"><path id="path4378" d="M 8.7185878,4.0337352 -2.2072895,0.01601326 8.7185884,-4.0017078 c -1.7454984,2.3720609 -1.7354408,5.6174519 -6e-7,8.035443 z" transform="matrix(0.3,0,0,0.3,-0.69,0)" style="fill:#3b2315;fill-opacity:1;fill-rule:evenodd;stroke:#3b2315;stroke-width:.625;stroke-linejoin:round;stroke-opacity:1"/></marker><marker id="Arrow2Send" orient="auto" refX="0" refY="0" style="overflow:visible"><path id="path4381" d="M 8.7185878,4.0337352 -2.2072895,0.01601326 8.7185884,-4.0017078 c -1.7454984,2.3720609 -1.7354408,5.6174519 -6e-7,8.035443 z" transform="matrix(-0.3,0,0,-0.3,0.69,0)" style="fill:#3b2315;fill-opacity:1;fill-rule:evenodd;stroke:#3b2315;stroke-width:.625;stroke-linejoin:round;stroke-opacity:1"/></marker><marker id="marker4722" orient="auto" refX="0" refY="0" style="overflow:visible"><path id="path4724" d="M 8.7185878,4.0337352 -2.2072895,0.01601326 8.7185884,-4.0017078 c -1.7454984,2.3720609 -1.7354408,5.6174519 -6e-7,8.035443 z" transform="scale(-0.6,-0.6)" style="fill:#000;fill-opacity:1;fill-rule:evenodd;stroke:#000;stroke-width:.625;stroke-linejoin:round;stroke-opacity:1"/></marker><marker id="Arrow2Mend" orient="auto" refX="0" refY="0" style="overflow:visible"><path id="path4375" d="M 8.7185878,4.0337352 -2.2072895,0.01601326 8.7185884,-4.0017078 c -1.7454984,2.3720609 -1.7354408,5.6174519 -6e-7,8.035443 z" transform="scale(-0.6,-0.6)" style="fill:#000;fill-opacity:1;fill-rule:evenodd;stroke:#000;stroke-width:.625;stroke-linejoin:round;stroke-opacity:1"/></marker><marker id="Arrow1Mend" orient="auto" refX="0" refY="0" style="overflow:visible"><path id="path4357" d="M 0,0 5,-5 -12.5,0 5,5 0,0 Z" transform="matrix(-0.4,0,0,-0.4,-4,0)" style="fill:#000;fill-opacity:1;fill-rule:evenodd;stroke:#000;stroke-width:1pt;stroke-opacity:1"/></marker><marker id="marker4624" orient="auto" refX="0" refY="0" style="overflow:visible"><path id="path4626" d="M 0,0 5,-5 -12.5,0 5,5 0,0 Z" transform="matrix(0.8,0,0,0.8,10,0)" style="fill:#000;fill-opacity:1;fill-rule:evenodd;stroke:#000;stroke-width:1pt;stroke-opacity:1"/></marker><marker id="Arrow1Lstart" orient="auto" refX="0" refY="0" style="overflow:visible"><path id="path4348" d="M 0,0 5,-5 -12.5,0 5,5 0,0 Z" transform="matrix(0.8,0,0,0.8,10,0)" style="fill:#000;fill-opacity:1;fill-rule:evenodd;stroke:#000;stroke-width:1pt;stroke-opacity:1"/></marker><marker id="Arrow2Send-4" orient="auto" refX="0" refY="0" style="overflow:visible"><path id="path4381-4" d="M 8.7185878,4.0337352 -2.2072895,0.01601326 8.7185884,-4.0017078 c -1.7454984,2.3720609 -1.7354408,5.6174519 -6e-7,8.035443 z" transform="matrix(-0.3,0,0,-0.3,0.69,0)" style="fill:#3b2315;fill-opacity:1;fill-rule:evenodd;stroke:#3b2315;stroke-width:.625;stroke-linejoin:round;stroke-opacity:1"/></marker><marker id="Arrow2Send-48" orient="auto" refX="0" refY="0" style="overflow:visible"><path id="path4381-6" d="M 8.7185878,4.0337352 -2.2072895,0.01601326 8.7185884,-4.0017078 c -1.7454984,2.3720609 -1.7354408,5.6174519 -6e-7,8.035443 z" transform="matrix(-0.3,0,0,-0.3,0.69,0)" style="fill:#3b2315;fill-opacity:1;fill-rule:evenodd;stroke:#3b2315;stroke-width:.625;stroke-linejoin:round;stroke-opacity:1"/></marker><marker id="Arrow2Send-48-4" orient="auto" refX="0" refY="0" style="overflow:visible"><path id="path4381-6-7" d="M 8.7185878,4.0337352 -2.2072895,0.01601326 8.7185884,-4.0017078 c -1.7454984,2.3720609 -1.7354408,5.6174519 -6e-7,8.035443 z" transform="matrix(-0.3,0,0,-0.3,0.69,0)" style="fill:#3b2315;fill-opacity:1;fill-rule:evenodd;stroke:#3b2315;stroke-width:.625;stroke-linejoin:round;stroke-opacity:1"/></marker><marker id="TriangleOutM-1" orient="auto" refX="0" refY="0" style="overflow:visible"><path id="path4568-1" d="m 5.77,0 -8.65,5 0,-10 8.65,5 z" transform="scale(0.4,0.4)" style="fill:#ff9800;fill-opacity:1;fill-rule:evenodd;stroke:#ff9800;stroke-width:1pt;stroke-opacity:1"/></marker></defs><metadata id="metadata7"/><g id="layer1" transform="translate(0,-762.36211)"><g id="g5529" transform="translate(98.972515,0)"><text id="text4434-5" x="78.239" y="1040.658" xml:space="preserve" style="font-style:normal;font-weight:400;font-size:40px;line-height:125%;font-family:sans-serif;letter-spacing:0;word-spacing:0;fill:#03a9f4;fill-opacity:1;stroke:none;stroke-width:1px;stroke-linecap:butt;stroke-linejoin:miter;stroke-opacity:1"><tspan style="font-style:normal;font-variant:normal;font-weight:700;font-stretch:normal;font-size:17.5px;font-family:Hack;-inkscape-font-specification:Hack;fill:#03a9f4" id="tspan4436-1" x="78.239" y="1040.658">HTML+CSS dengan JavaScript</tspan></text><rect id="rect3380-9-2-6" width="170" height="10" x="19.451" y="776.814" style="fill:#9e9e9e;fill-opacity:1;stroke:none;stroke-width:5;stroke-linecap:round;stroke-linejoin:round;stroke-miterlimit:4;stroke-dasharray:none;stroke-opacity:1"/><rect id="rect4674-1" width="180" height="72.5" x="12.5" y="943.975" style="fill:none;fill-opacity:1;stroke:#03a9f4;stroke-width:1;stroke-linecap:round;stroke-linejoin:round;stroke-miterlimit:4;stroke-dasharray:none;stroke-opacity:1"/><rect id="rect3380-8" width="200" height="250" x="2.5" y="764.862" style="fill:none;fill-opacity:1;stroke:#000;stroke-width:5;stroke-linecap:round;stroke-linejoin:round;stroke-miterlimit:4;stroke-dasharray:none;stroke-opacity:1"/><rect id="rect3380-9-2" width="170" height="10" x="17.5" y="774.862" style="fill:#f57f17;fill-opacity:1;stroke:none;stroke-width:5;stroke-linecap:round;stroke-linejoin:round;stroke-miterlimit:4;stroke-dasharray:none;stroke-opacity:1"/><rect id="rect3380-9-3-9-9" width="30" height="30" x="17.5" y="789.862" rx="10" ry="10" style="fill:#009688;fill-opacity:1;stroke:none;stroke-width:5;stroke-linecap:round;stroke-linejoin:round;stroke-miterlimit:4;stroke-dasharray:none;stroke-opacity:1"/><rect id="rect3380-9-3-9-4-5" width="30" height="30" x="52.5" y="789.862" rx="10" ry="10" style="fill:#009688;fill-opacity:1;stroke:none;stroke-width:5;stroke-linecap:round;stroke-linejoin:round;stroke-miterlimit:4;stroke-dasharray:none;stroke-opacity:1"/><rect id="rect3380-9-3-9-4-8-4" width="30" height="30" x="87.5" y="789.862" rx="10" ry="10" style="fill:#009688;fill-opacity:1;stroke:none;stroke-width:5;stroke-linecap:round;stroke-linejoin:round;stroke-miterlimit:4;stroke-dasharray:none;stroke-opacity:1"/><rect id="rect3380-9-3-9-4-8-3-9" width="30" height="30" x="122.5" y="789.862" rx="10" ry="10" style="fill:#009688;fill-opacity:1;stroke:none;stroke-width:5;stroke-linecap:round;stroke-linejoin:round;stroke-miterlimit:4;stroke-dasharray:none;stroke-opacity:1"/><rect id="rect3380-9-3-9-4-8-3-8-0" width="30" height="30" x="157.5" y="789.862" rx="10" ry="10" style="fill:#009688;fill-opacity:1;stroke:none;stroke-width:5;stroke-linecap:round;stroke-linejoin:round;stroke-miterlimit:4;stroke-dasharray:none;stroke-opacity:1"/><text id="text4434-55-1" x="33.443" y="845.438" xml:space="preserve" style="font-style:normal;font-weight:400;font-size:45.92558289px;line-height:125%;font-family:sans-serif;letter-spacing:0;word-spacing:0;fill:#000;fill-opacity:1;stroke:none;stroke-width:1px;stroke-linecap:butt;stroke-linejoin:miter;stroke-opacity:1"><tspan style="font-style:normal;font-variant:normal;font-weight:700;font-stretch:normal;font-size:20px;font-family:Cantarell;-inkscape-font-specification:Cantarell;fill:#f44336" id="tspan4436-5-5" x="33.443" y="845.438">Sebuah Tulisan</tspan></text><rect id="rect4674" width="180" height="80" x="12.5" y="858.975" style="fill:none;fill-opacity:1;stroke:#03a9f4;stroke-width:1;stroke-linecap:round;stroke-linejoin:round;stroke-miterlimit:4;stroke-dasharray:none;stroke-opacity:1"/><path id="path4691" d="m 17.332207,877.93734 8.458061,-4.57112 1.029424,-9.55898 6.961077,6.63154 9.409245,-1.97485 -4.155878,8.66963 4.785808,8.33847 -9.529551,-1.27341 -6.451452,7.1283 -1.733709,-9.45665 z" style="fill:#fff;fill-opacity:1;stroke:#03a9f4;stroke-width:.66450375;stroke-linecap:round;stroke-linejoin:round;stroke-miterlimit:4;stroke-dasharray:none;stroke-opacity:1"/><flowRoot style="font-style:normal;font-weight:400;font-size:12.5px;line-height:125%;font-family:sans-serif;letter-spacing:0;word-spacing:0;fill:#000;fill-opacity:1;stroke:none;stroke-width:1px;stroke-linecap:butt;stroke-linejoin:miter;stroke-opacity:1" id="flowRoot4693" transform="translate(-220,767.23759)" xml:space="preserve"><flowRegion id="flowRegion4695"><rect style="font-size:12.5px" id="rect4697" width="134.667" height="70.156" x="272.963" y="99.288"/></flowRegion><flowPara style="fill:#01579b" id="flowPara4699">abcdefghijklmnopqrstuvwxyzabcdefghijklmnopqrstuvwxyzabcdefghijklmnopqrstuvwxyz</flowPara></flowRoot><path id="path4691-4" d="m 17.332207,962.93734 8.458061,-4.57112 1.029424,-9.55898 6.961077,6.63154 9.409245,-1.97485 -4.155878,8.66963 4.785808,8.33847 -9.529551,-1.27341 -6.451452,7.1283 -1.733709,-9.45665 z" style="fill:#fff;fill-opacity:1;stroke:#03a9f4;stroke-width:.66450375;stroke-linecap:round;stroke-linejoin:round;stroke-miterlimit:4;stroke-dasharray:none;stroke-opacity:1"/><flowRoot style="font-style:normal;font-weight:400;font-size:12.5px;line-height:125%;font-family:sans-serif;letter-spacing:0;word-spacing:0;fill:#000;fill-opacity:1;stroke:none;stroke-width:1px;stroke-linecap:butt;stroke-linejoin:miter;stroke-opacity:1" id="flowRoot4693-5" transform="translate(-219.99999,852.23755)" xml:space="preserve"><flowRegion id="flowRegion4695-0"><rect style="font-size:12.5px" id="rect4697-5" width="134.667" height="70.156" x="272.963" y="99.288"/></flowRegion><flowPara style="fill:#01579b" id="flowPara4699-5">abcdefghijklmnopqrstuvwxyzabcdefghijklmnopqrstuvwxyzabc</flowPara></flowRoot><rect id="rect3380-9-2-6-8" width="170" height="10" x="244.451" y="776.814" style="fill:#9e9e9e;fill-opacity:1;stroke:none;stroke-width:5;stroke-linecap:round;stroke-linejoin:round;stroke-miterlimit:4;stroke-dasharray:none;stroke-opacity:1"/><rect id="rect4674-1-2" width="180" height="72.5" x="237.5" y="943.975" style="fill:none;fill-opacity:1;stroke:#03a9f4;stroke-width:1;stroke-linecap:round;stroke-linejoin:round;stroke-miterlimit:4;stroke-dasharray:none;stroke-opacity:1"/><rect id="rect3380-8-9" width="200" height="250" x="227.5" y="764.862" style="fill:none;fill-opacity:1;stroke:#000;stroke-width:5;stroke-linecap:round;stroke-linejoin:round;stroke-miterlimit:4;stroke-dasharray:none;stroke-opacity:1"/><rect id="rect3380-9-2-1" width="170" height="10" x="242.5" y="774.862" style="fill:#f57f17;fill-opacity:1;stroke:none;stroke-width:5;stroke-linecap:round;stroke-linejoin:round;stroke-miterlimit:4;stroke-dasharray:none;stroke-opacity:1"/><rect id="rect3380-9-3-9-9-4" width="30" height="30" x="242.5" y="789.862" rx="10" ry="10" style="fill:#009688;fill-opacity:1;stroke:none;stroke-width:5;stroke-linecap:round;stroke-linejoin:round;stroke-miterlimit:4;stroke-dasharray:none;stroke-opacity:1"/><rect id="rect3380-9-3-9-4-5-4" width="30" height="30" x="277.5" y="789.862" rx="10" ry="10" style="fill:#009688;fill-opacity:1;stroke:none;stroke-width:5;stroke-linecap:round;stroke-linejoin:round;stroke-miterlimit:4;stroke-dasharray:none;stroke-opacity:1"/><rect id="rect3380-9-3-9-4-8-4-0" width="30" height="30" x="312.5" y="789.862" rx="10" ry="10" style="fill:#009688;fill-opacity:1;stroke:none;stroke-width:5;stroke-linecap:round;stroke-linejoin:round;stroke-miterlimit:4;stroke-dasharray:none;stroke-opacity:1"/><rect id="rect3380-9-3-9-4-8-3-9-6" width="30" height="30" x="347.5" y="789.862" rx="10" ry="10" style="fill:#009688;fill-opacity:1;stroke:none;stroke-width:5;stroke-linecap:round;stroke-linejoin:round;stroke-miterlimit:4;stroke-dasharray:none;stroke-opacity:1"/><rect id="rect3380-9-3-9-4-8-3-8-0-8" width="30" height="30" x="382.5" y="789.862" rx="10" ry="10" style="fill:#009688;fill-opacity:1;stroke:none;stroke-width:5;stroke-linecap:round;stroke-linejoin:round;stroke-miterlimit:4;stroke-dasharray:none;stroke-opacity:1"/><text id="text4434-55-1-1" x="258.443" y="845.438" xml:space="preserve" style="font-style:normal;font-weight:400;font-size:45.92558289px;line-height:125%;font-family:sans-serif;letter-spacing:0;word-spacing:0;fill:#000;fill-opacity:1;stroke:none;stroke-width:1px;stroke-linecap:butt;stroke-linejoin:miter;stroke-opacity:1"><tspan style="font-style:normal;font-variant:normal;font-weight:700;font-stretch:normal;font-size:20px;font-family:Cantarell;-inkscape-font-specification:Cantarell;fill:#f44336" id="tspan4436-5-5-4" x="258.443" y="845.438">Sebuah Tulisan</tspan></text><rect id="rect4674-3" width="180" height="80" x="237.5" y="858.975" style="fill:none;fill-opacity:1;stroke:#03a9f4;stroke-width:1;stroke-linecap:round;stroke-linejoin:round;stroke-miterlimit:4;stroke-dasharray:none;stroke-opacity:1"/><path id="path4691-2" d="m 242.33222,877.93734 8.45806,-4.57112 1.02942,-9.55898 6.96108,6.63154 9.40924,-1.97485 -4.15587,8.66963 4.78581,8.33847 -9.52956,-1.27341 -6.45145,7.1283 -1.73371,-9.45665 z" style="fill:#ffc107;fill-opacity:1;stroke:#03a9f4;stroke-width:.66450375;stroke-linecap:round;stroke-linejoin:round;stroke-miterlimit:4;stroke-dasharray:none;stroke-opacity:1"/><flowRoot style="font-style:normal;font-weight:400;font-size:12.5px;line-height:125%;font-family:sans-serif;letter-spacing:0;word-spacing:0;fill:#000;fill-opacity:1;stroke:none;stroke-width:1px;stroke-linecap:butt;stroke-linejoin:miter;stroke-opacity:1" id="flowRoot4693-0" transform="translate(5.000004,767.23757)" xml:space="preserve"><flowRegion id="flowRegion4695-7"><rect style="font-size:12.5px" id="rect4697-0" width="134.667" height="70.156" x="272.963" y="99.288"/></flowRegion><flowPara style="fill:#01579b" id="flowPara4699-1">abcdefghijklmnopqrstuvwxyzabcdefghijklmnopqrstuvwxyzabcdefghijklmnopqrstuvwxyz</flowPara></flowRoot><path id="path4691-4-5" d="m 242.33222,962.93728 8.45806,-4.57112 1.02942,-9.55898 6.96108,6.63153 9.40924,-1.97484 -4.15587,8.66963 4.78581,8.33846 -9.52956,-1.27341 -6.45145,7.12831 -1.73371,-9.45665 z" style="fill:#fff;fill-opacity:1;stroke:#03a9f4;stroke-width:.66450375;stroke-linecap:round;stroke-linejoin:round;stroke-miterlimit:4;stroke-dasharray:none;stroke-opacity:1"/><flowRoot style="font-style:normal;font-weight:400;font-size:12.5px;line-height:125%;font-family:sans-serif;letter-spacing:0;word-spacing:0;fill:#000;fill-opacity:1;stroke:none;stroke-width:1px;stroke-linecap:butt;stroke-linejoin:miter;stroke-opacity:1" id="flowRoot4693-5-3" transform="translate(5.000014,852.23752)" xml:space="preserve"><flowRegion id="flowRegion4695-0-0"><rect style="font-size:12.5px" id="rect4697-5-1" width="134.667" height="70.156" x="272.963" y="99.288"/></flowRegion><flowPara style="fill:#01579b" id="flowPara4699-5-3">abcdefghijklmnopqrstuvwxyzabcdefghijklmnopqrstuvwxyzabc</flowPara></flowRoot><text id="text3539" x="-98.067" y="902.632" xml:space="preserve" style="font-style:normal;font-weight:400;font-size:40px;line-height:125%;font-family:sans-serif;letter-spacing:0;word-spacing:0;fill:#03a9f4;fill-opacity:1;stroke:none;stroke-width:1px;stroke-linecap:butt;stroke-linejoin:miter;stroke-opacity:1"><tspan style="font-style:normal;font-variant:normal;font-weight:400;font-stretch:normal;font-size:15px;font-family:hack;-inkscape-font-specification:hack;fill:#03a9f4;fill-opacity:1" id="tspan3541" x="-98.067" y="902.632">misalnya</tspan><tspan style="font-style:normal;font-variant:normal;font-weight:400;font-stretch:normal;font-size:15px;font-family:hack;-inkscape-font-specification:hack;fill:#03a9f4;fill-opacity:1" id="tspan3543" x="-98.067" y="921.382">diklik</tspan></text><path id="path3545" d="m -34.855696,915.1171 c 28.7930378,9.00975 42.7934281,5.40991 52.391567,-18.73563" style="fill:none;fill-rule:evenodd;stroke:#ff9800;stroke-width:3;stroke-linecap:round;stroke-linejoin:round;stroke-miterlimit:4;stroke-dasharray:none;stroke-opacity:1;marker-end:url(#TriangleOutM)"/><text id="text3539-3" x="447.485" y="910.722" xml:space="preserve" style="font-style:normal;font-weight:400;font-size:40px;line-height:125%;font-family:sans-serif;letter-spacing:0;word-spacing:0;fill:#03a9f4;fill-opacity:1;stroke:none;stroke-width:1px;stroke-linecap:butt;stroke-linejoin:miter;stroke-opacity:1"><tspan style="font-style:normal;font-variant:normal;font-weight:400;font-stretch:normal;font-size:15px;font-family:hack;-inkscape-font-specification:hack;fill:#03a9f4;fill-opacity:1" id="tspan3543-6" x="447.485" y="910.722">sesudah</tspan><tspan id="tspan4930" x="447.485" y="929.472" style="font-style:normal;font-variant:normal;font-weight:400;font-stretch:normal;font-size:15px;font-family:hack;-inkscape-font-specification:hack;fill:#03a9f4;fill-opacity:1">diklik</tspan></text><path id="path3545-3" d="m 440.52091,924.77335 c -99.0641,12.58118 -167.92085,11.1242 -186.17985,-17.30706" style="fill:none;fill-rule:evenodd;stroke:#ff9800;stroke-width:3;stroke-linecap:round;stroke-linejoin:round;stroke-miterlimit:4;stroke-dasharray:none;stroke-opacity:1;marker-end:url(#TriangleOutM-1)"/></g></g></svg>