<svg xmlns="http://www.w3.org/2000/svg" xmlns:svg="http://www.w3.org/2000/svg" id="svg2" width="400" height="420" version="1.1" viewBox="0 0 400 420"><defs id="defs4"><marker id="marker4658" orient="auto" refX="0" refY="0" style="overflow:visible"><path id="path4432" d="M 8.7185878,4.0337352 -2.2072895,0.01601326 8.7185884,-4.0017078 c -1.7454984,2.3720609 -1.7354408,5.6174519 -6e-7,8.035443 z" transform="matrix(0.3,0,0,0.3,-0.69,0)" style="fill:#2ba9e0;fill-opacity:1;fill-rule:evenodd;stroke:#2ba9e0;stroke-width:.625;stroke-linejoin:round;stroke-opacity:1"/></marker><marker id="Arrow2Sstart" orient="auto" refX="0" refY="0" style="overflow:visible"><path id="path4378" d="M 8.7185878,4.0337352 -2.2072895,0.01601326 8.7185884,-4.0017078 c -1.7454984,2.3720609 -1.7354408,5.6174519 -6e-7,8.035443 z" transform="matrix(0.3,0,0,0.3,-0.69,0)" style="fill:#3b2315;fill-opacity:1;fill-rule:evenodd;stroke:#3b2315;stroke-width:.625;stroke-linejoin:round;stroke-opacity:1"/></marker><marker id="Arrow2Send" orient="auto" refX="0" refY="0" style="overflow:visible"><path id="path4381" d="M 8.7185878,4.0337352 -2.2072895,0.01601326 8.7185884,-4.0017078 c -1.7454984,2.3720609 -1.7354408,5.6174519 -6e-7,8.035443 z" transform="matrix(-0.3,0,0,-0.3,0.69,0)" style="fill:#3b2315;fill-opacity:1;fill-rule:evenodd;stroke:#3b2315;stroke-width:.625;stroke-linejoin:round;stroke-opacity:1"/></marker><marker id="marker4722" orient="auto" refX="0" refY="0" style="overflow:visible"><path id="path4724" d="M 8.7185878,4.0337352 -2.2072895,0.01601326 8.7185884,-4.0017078 c -1.7454984,2.3720609 -1.7354408,5.6174519 -6e-7,8.035443 z" transform="scale(-0.6,-0.6)" style="fill:#000;fill-opacity:1;fill-rule:evenodd;stroke:#000;stroke-width:.625;stroke-linejoin:round;stroke-opacity:1"/></marker><marker id="Arrow2Mend" orient="auto" refX="0" refY="0" style="overflow:visible"><path id="path4375" d="M 8.7185878,4.0337352 -2.2072895,0.01601326 8.7185884,-4.0017078 c -1.7454984,2.3720609 -1.7354408,5.6174519 -6e-7,8.035443 z" transform="scale(-0.6,-0.6)" style="fill:#000;fill-opacity:1;fill-rule:evenodd;stroke:#000;stroke-width:.625;stroke-linejoin:round;stroke-opacity:1"/></marker><marker id="Arrow1Mend" orient="auto" refX="0" refY="0" style="overflow:visible"><path id="path4357" d="M 0,0 5,-5 -12.5,0 5,5 0,0 Z" transform="matrix(-0.4,0,0,-0.4,-4,0)" style="fill:#000;fill-opacity:1;fill-rule:evenodd;stroke:#000;stroke-width:1pt;stroke-opacity:1"/></marker><marker id="marker4624" orient="auto" refX="0" refY="0" style="overflow:visible"><path id="path4626" d="M 0,0 5,-5 -12.5,0 5,5 0,0 Z" transform="matrix(0.8,0,0,0.8,10,0)" style="fill:#000;fill-opacity:1;fill-rule:evenodd;stroke:#000;stroke-width:1pt;stroke-opacity:1"/></marker><marker id="Arrow1Lstart" orient="auto" refX="0" refY="0" style="overflow:visible"><path id="path4348" d="M 0,0 5,-5 -12.5,0 5,5 0,0 Z" transform="matrix(0.8,0,0,0.8,10,0)" style="fill:#000;fill-opacity:1;fill-rule:evenodd;stroke:#000;stroke-width:1pt;stroke-opacity:1"/></marker><marker id="Arrow2Send-4" orient="auto" refX="0" refY="0" style="overflow:visible"><path id="path4381-4" d="M 8.7185878,4.0337352 -2.2072895,0.01601326 8.7185884,-4.0017078 c -1.7454984,2.3720609 -1.7354408,5.6174519 -6e-7,8.035443 z" transform="matrix(-0.3,0,0,-0.3,0.69,0)" style="fill:#3b2315;fill-opacity:1;fill-rule:evenodd;stroke:#3b2315;stroke-width:.625;stroke-linejoin:round;stroke-opacity:1"/></marker><marker id="Arrow2Send-48" orient="auto" refX="0" refY="0" style="overflow:visible"><path id="path4381-6" d="M 8.7185878,4.0337352 -2.2072895,0.01601326 8.7185884,-4.0017078 c -1.7454984,2.3720609 -1.7354408,5.6174519 -6e-7,8.035443 z" transform="matrix(-0.3,0,0,-0.3,0.69,0)" style="fill:#3b2315;fill-opacity:1;fill-rule:evenodd;stroke:#3b2315;stroke-width:.625;stroke-linejoin:round;stroke-opacity:1"/></marker><marker id="Arrow2Send-48-4" orient="auto" refX="0" refY="0" style="overflow:visible"><path id="path4381-6-7" d="M 8.7185878,4.0337352 -2.2072895,0.01601326 8.7185884,-4.0017078 c -1.7454984,2.3720609 -1.7354408,5.6174519 -6e-7,8.035443 z" transform="matrix(-0.3,0,0,-0.3,0.69,0)" style="fill:#3b2315;fill-opacity:1;fill-rule:evenodd;stroke:#3b2315;stroke-width:.625;stroke-linejoin:round;stroke-opacity:1"/></marker><marker id="marker4658-0" orient="auto" refX="0" refY="0" style="overflow:visible"><path id="path4432-8" d="M 8.7185878,4.0337352 -2.2072895,0.01601326 8.7185884,-4.0017078 c -1.7454984,2.3720609 -1.7354408,5.6174519 -6e-7,8.035443 z" transform="matrix(0.3,0,0,0.3,-0.69,0)" style="fill:#2ba9e0;fill-opacity:1;fill-rule:evenodd;stroke:#2ba9e0;stroke-width:.625;stroke-linejoin:round;stroke-opacity:1"/></marker></defs><metadata id="metadata7"/><g id="layer1" transform="translate(0,-632.36211)"><rect style="fill:#607d8b;fill-opacity:1;stroke:none;stroke-width:5;stroke-linecap:round;stroke-linejoin:round;stroke-miterlimit:4;stroke-dasharray:5,5;stroke-dashoffset:0;stroke-opacity:1" id="rect4762" width="400" height="400" x="0" y="-1052.362" transform="scale(1,-1)"/><rect style="fill:#fff;fill-opacity:1;stroke:none;stroke-width:5;stroke-linecap:round;stroke-linejoin:round;stroke-miterlimit:4;stroke-dasharray:5,5;stroke-dashoffset:0;stroke-opacity:1" id="rect4762-5" width="395" height="395" x="2.5" y="-1049.862" transform="scale(1,-1)"/><path style="fill:#eb5c2b;fill-opacity:1;stroke:none;stroke-width:5;stroke-linecap:round;stroke-linejoin:round;stroke-miterlimit:4;stroke-dasharray:none;stroke-opacity:1" id="rect4388-8" d="m 130,811.04708 150,0 0,80 -150,0 z"/><text style="font-style:normal;font-weight:400;font-size:40px;line-height:125%;font-family:sans-serif;letter-spacing:0;word-spacing:0;fill:#fafafa;fill-opacity:1;stroke:none;stroke-width:1px;stroke-linecap:butt;stroke-linejoin:miter;stroke-opacity:1" id="text4187-1-1-8" x="203.924" y="844.422" xml:space="preserve"><tspan id="tspan4189-4-51-1" x="203.924" y="844.422" style="font-style:normal;font-variant:normal;font-weight:400;font-stretch:normal;font-size:25.00000191px;font-family:'Source Han Sans JP';-inkscape-font-specification:'Source Han Sans JP';text-align:center;text-anchor:middle;fill:#fafafa;fill-opacity:1">HTML</tspan><tspan style="font-style:normal;font-variant:normal;font-weight:400;font-stretch:normal;font-size:25.00000191px;font-family:'Source Han Sans JP';-inkscape-font-specification:'Source Han Sans JP';text-align:center;text-anchor:middle;fill:#fafafa;fill-opacity:1" id="tspan3505" x="203.924" y="875.672">Element</tspan></text><g id="g3509" transform="translate(107.41801,104.57258)"><path id="rect4388-8-9-6-7-5" d="m 95,851.4745 150,0 0,80 -150,0 z" style="fill:#eb5c2b;fill-opacity:1;stroke:none;stroke-width:5;stroke-linecap:round;stroke-linejoin:round;stroke-miterlimit:4;stroke-dasharray:none;stroke-opacity:1"/><text id="text4187-1-1-8-8-8-2-4" x="169.365" y="882.985" xml:space="preserve" style="font-style:normal;font-weight:400;font-size:40px;line-height:125%;font-family:sans-serif;letter-spacing:0;word-spacing:0;fill:#fafafa;fill-opacity:1;stroke:none;stroke-width:1px;stroke-linecap:butt;stroke-linejoin:miter;stroke-opacity:1"><tspan style="font-style:normal;font-variant:normal;font-weight:700;font-stretch:normal;font-size:25.00000191px;font-family:Hack;-inkscape-font-specification:Hack;text-align:center;text-anchor:middle;fill:#fafafa;fill-opacity:1" id="tspan4189-4-51-1-4-1-2-0" x="169.365" y="882.985">onclick</tspan><tspan id="tspan3507" x="169.365" y="913.809" style="font-style:normal;font-variant:normal;font-weight:400;font-stretch:normal;font-size:25.00000191px;font-family:'Source Han Sans JP';-inkscape-font-specification:'Source Han Sans JP';text-align:center;text-anchor:middle;fill:#fafafa;fill-opacity:1">property</tspan></text></g><g id="g4757" transform="translate(-82.58199,-246.31502)"><path id="rect4388-8-9-6-7-5-2-1" d="m 95,1002.3621 150,0 0,34.6015 -150,0 z" style="fill:#f39223;fill-opacity:1;stroke:none;stroke-width:5;stroke-linecap:round;stroke-linejoin:round;stroke-miterlimit:4;stroke-dasharray:none;stroke-opacity:1"/><text id="text4187-1-1-8-8-8-2-4-8-7" x="169.932" y="1026.353" xml:space="preserve" style="font-style:normal;font-weight:400;font-size:40px;line-height:125%;font-family:sans-serif;letter-spacing:0;word-spacing:0;fill:#fafafa;fill-opacity:1;stroke:none;stroke-width:1px;stroke-linecap:butt;stroke-linejoin:miter;stroke-opacity:1"><tspan style="font-style:normal;font-variant:normal;font-weight:700;font-stretch:normal;font-size:17.5px;font-family:Hack;-inkscape-font-specification:Hack;text-align:center;text-anchor:middle;fill:#fafafa;fill-opacity:1" id="tspan4189-4-51-1-4-1-2-0-4-5" x="169.932" y="1026.353">changeColor()</tspan></text></g><path style="fill:none;fill-rule:evenodd;stroke:#2ba9e0;stroke-width:5.16397762;stroke-linecap:butt;stroke-linejoin:miter;stroke-miterlimit:4;stroke-dasharray:none;stroke-opacity:1" id="path4828-7-7-5" d="m 242.41801,891.04708 0,65"/><path style="fill:none;fill-rule:evenodd;stroke:#2ba9e0;stroke-width:5;stroke-linecap:butt;stroke-linejoin:miter;stroke-miterlimit:4;stroke-dasharray:5,5;stroke-dashoffset:0;stroke-opacity:1;marker-start:url(#marker4658)" id="path4828-0-7" d="m 290,851.04708 37.41801,0 0,105"/><text id="text4187-1-1-8-8-8-2-4-8" x="348.397" y="843.193" xml:space="preserve" style="font-style:normal;font-weight:400;font-size:40px;line-height:125%;font-family:sans-serif;letter-spacing:0;word-spacing:0;fill:#ffc107;fill-opacity:1;stroke:none;stroke-width:1px;stroke-linecap:butt;stroke-linejoin:miter;stroke-opacity:1"><tspan id="tspan3507-4" x="348.397" y="843.193" style="font-style:normal;font-variant:normal;font-weight:700;font-stretch:normal;font-size:25.00000191px;font-family:hack;-inkscape-font-specification:hack;text-align:center;text-anchor:middle;fill:#ffc107;fill-opacity:1">this</tspan></text><text id="text4187-1-1-8-8-8-2-4-8-5" x="49.044" y="723.063" xml:space="preserve" style="font-style:normal;font-weight:400;font-size:40px;line-height:125%;font-family:sans-serif;letter-spacing:0;word-spacing:0;fill:#ffc107;fill-opacity:1;stroke:none;stroke-width:1px;stroke-linecap:butt;stroke-linejoin:miter;stroke-opacity:1"><tspan id="tspan3507-4-0" x="49.044" y="723.063" style="font-style:normal;font-variant:normal;font-weight:700;font-stretch:normal;font-size:25.00000191px;font-family:hack;-inkscape-font-specification:hack;text-align:center;text-anchor:middle;fill:#ffc107;fill-opacity:1">this</tspan></text><path style="fill:none;fill-rule:evenodd;stroke:#2ba9e0;stroke-width:5;stroke-linecap:butt;stroke-linejoin:miter;stroke-miterlimit:4;stroke-dasharray:5,5;stroke-dashoffset:0;stroke-opacity:1;marker-start:url(#marker4658-0)" id="path4828-0-7-7" d="m 87.41801,676.04708 0,80"/><path style="fill:#fff;fill-opacity:1;stroke:none;stroke-width:5;stroke-linecap:round;stroke-linejoin:round;stroke-miterlimit:4;stroke-dasharray:none;stroke-opacity:1" id="rect4388-8-9-6-7-5-2-1-8" d="m 20,632.36211 100,0 0,34.6015 -100,0 z"/><text id="text4187-1-1-8-8-8-2-4-8-5-9" x="69.994" y="659.221" xml:space="preserve" style="font-style:normal;font-weight:400;font-size:40px;line-height:125%;font-family:sans-serif;letter-spacing:0;word-spacing:0;fill:#607d8b;fill-opacity:1;stroke:none;stroke-width:1px;stroke-linecap:butt;stroke-linejoin:miter;stroke-opacity:1"><tspan id="tspan3507-4-0-2" x="69.994" y="659.221" style="font-style:normal;font-variant:normal;font-weight:700;font-stretch:normal;font-size:25.00000191px;font-family:hack;-inkscape-font-specification:hack;text-align:center;text-anchor:middle;fill:#607d8b;fill-opacity:1">window</tspan></text></g></svg>